<?xml version="1.0" encoding="UTF-8" standalone="no"?>
<!DOCTYPE svg PUBLIC "-//W3C//DTD SVG 1.1//EN" "http://www.w3.org/Graphics/SVG/1.1/DTD/svg11.dtd">
<svg width="100%" height="100%" viewBox="0 0 1128 1114" version="1.1" xmlns="http://www.w3.org/2000/svg" xmlns:xlink="http://www.w3.org/1999/xlink" xml:space="preserve" xmlns:serif="http://www.serif.com/" style="fill-rule:evenodd;clip-rule:evenodd;stroke-linecap:round;stroke-linejoin:round;stroke-miterlimit:1.5;">
    <g id="Artboard1" transform="matrix(1,0,0,1,-240,-40)">
        <rect x="240" y="40" width="1128" height="1114" style="fill:none;"/>
        <g id="Layer1">
            <g transform="matrix(2.69184,0,0,2.69184,-1844.45,-557.942)">
                <path d="M800,400L800,564.855C800,567.811 801.174,570.646 803.264,572.736C805.354,574.826 808.189,576 811.145,576L1156.86,576C1159.81,576 1162.65,574.826 1164.74,572.736C1166.83,570.646 1168,567.811 1168,564.855L1168,400C1154.46,410.305 1133.56,410.934 1120,400L1120,513.381C1120,516.337 1118.83,519.171 1116.74,521.262C1114.65,523.352 1111.81,524.526 1108.86,524.526C1064.82,524.526 903.184,524.526 859.145,524.526C856.189,524.526 853.354,523.352 851.264,521.262C849.174,519.171 848,516.337 848,513.381C848,482.829 848,400 848,400C834.623,410.419 812.911,411.13 800,400Z" style="fill:rgb(0,85,238);"/>
            </g>
            <g transform="matrix(1.29015,0,0,0.80102,109.899,168.296)">
                <path d="M538,502.228C538,497.687 535.711,494 532.892,494L289.108,494C286.289,494 284,497.687 284,502.228L284,681.772C284,686.313 286.289,690 289.108,690L532.892,690C535.711,690 538,686.313 538,681.772L538,502.228Z" style="fill:rgb(0,85,238);"/>
            </g>
            <g transform="matrix(2.69184,0,0,2.69184,-1844.45,-557.942)">
                <path d="M824.688,239C819.58,239 815.126,242.472 813.88,247.425C808.642,268.241 795.01,322.415 788.035,350.133C784.753,363.174 790.091,376.863 801.335,384.24C808.239,388.734 815.62,391 824,391C839.803,391 850.138,382.906 863.79,367.004C877.433,383.023 890.745,391.782 904,392C917.572,392.223 931.078,383.52 944.239,367.004C957.129,383.749 971.603,392.096 984,392C996.558,391.903 1011,383.562 1024.25,367.004C1037.73,383.735 1050.79,391.963 1064,392C1077.28,392.037 1090.71,383.793 1103.72,367.004C1117.13,382.683 1128.02,391.064 1144,391C1153.36,390.963 1160.67,388.186 1167.92,382.676C1178.01,375.055 1182.57,362.151 1179.53,349.883C1172.64,322.102 1159.26,268.236 1154.1,247.459C1152.87,242.489 1148.4,239 1143.28,239L824.688,239Z" style="fill:rgb(187,0,34);"/>
            </g>
            <g transform="matrix(2.54764,0,0,2.33082,-1294.93,-462.77)">
                <path d="M824,368L823.79,268.679" style="fill:none;stroke:white;stroke-width:12.7px;"/>
            </g>
            <g transform="matrix(1.30579,0,0,1.30579,1012.71,809.718)">
                <g transform="matrix(1,0,0,1,-192,-256)">
                    <g transform="matrix(0.885417,0,0,0.885417,22,29.3354)">
                        <path d="M183,500C29.962,294.915 0,269.413 0,192C0,85.961 85.961,0 192,0C298.039,0 384,85.961 384,192C384,269.413 350.242,303.04 202,500C196.861,506.828 192.464,512.001 192.482,511.995C192.501,511.989 187.521,506.059 183,500ZM192,272C236.183,272 272,236.183 272,192C272,147.817 236.183,112 192,112C147.817,112 112,147.817 112,192C112,236.183 147.817,272 192,272Z" style="fill:rgb(34,170,0);fill-rule:nonzero;stroke:white;stroke-width:22.59px;stroke-linecap:butt;stroke-miterlimit:2;"/>
                    </g>
                </g>
            </g>
            <g transform="matrix(2.69184,0,0,2.33082,-1844.45,-462.77)">
                <path d="M824,368L848,268.679" style="fill:none;stroke:white;stroke-width:12.31px;"/>
            </g>
            <g transform="matrix(2.69184,1.61571e-17,-1.76601e-17,-2.33082,-1047.67,991.661)">
                <path d="M824,355.321L848,256" style="fill:none;stroke:white;stroke-width:12.31px;"/>
            </g>
            <g transform="matrix(2.69184,0,0,2.33082,-1623.72,-462.77)">
                <path d="M824,368L830,268.679" style="fill:none;stroke:white;stroke-width:12.31px;"/>
            </g>
            <g transform="matrix(2.69184,1.61571e-17,-1.76601e-17,-2.33082,-1209.18,991.661)">
                <path d="M824,355.321L830,256" style="fill:none;stroke:white;stroke-width:12.31px;"/>
            </g>
            <g transform="matrix(7.63988,0,0,7.63988,-1896.83,-3614.91)">
                <text x="313.557px" y="561.632px" style="font-family:'ArialRoundedMTBold', 'Arial Rounded MT Bold', sans-serif;font-size:12.566px;fill:white;">OPEN</text>
            </g>
        </g>
    </g>
</svg>
